<?xml version="1.0" encoding="UTF-8"?>
<svg id="Layer_1" xmlns="http://www.w3.org/2000/svg" version="1.1" viewBox="0 0 595.28 841.89">
  <!-- Generator: Adobe Illustrator 30.1.0, SVG Export Plug-In . SVG Version: 2.1.1 Build 136)  -->
  <defs>
    <style>
      .st0 {
        isolation: isolate;
        opacity: .3;
      }

      .st0, .st1, .st2, .st3, .st4 {
        fill: none;
        stroke: #010101;
      }

      .st0, .st3 {
        stroke-width: .28px;
      }

      .st0, .st3, .st4 {
        stroke-miterlimit: 11.34;
      }

      .st1 {
        stroke-miterlimit: 11.34;
        stroke-width: .28px;
      }

      .st2 {
        stroke-miterlimit: 11.34;
        stroke-width: .28px;
      }

      .st4 {
        stroke-width: .57px;
      }
    </style>
  </defs>
  <line class="st3" x1="297.64" y1="785.2" x2="297.64" y2="813.54"/>
  <line class="st3" x1="297.64" y1="28.35" x2="297.64" y2="56.69"/>
  <line class="st3" x1="297.64" y1="406.77" x2="297.64" y2="435.12"/>
  <line class="st3" x1="566.63" y1="420.94" x2="538.29" y2="420.94"/>
  <line class="st3" x1="56.69" y1="420.94" x2="28.35" y2="420.94"/>
  <line class="st3" x1="311.81" y1="420.94" x2="283.46" y2="420.94"/>
  <rect class="st3" x="150.07" y="532.21" width="22.68" height="22.68"/>
  <rect class="st3" x="154.33" y="569.05" width="14.17" height="14.17"/>
  <rect class="st3" x="158.58" y="597.4" width="5.67" height="5.67"/>
  <rect class="st3" x="147.24" y="489.68" width="28.35" height="28.35"/>
  <polyline class="st3" points="158.61 506.98 158.61 500.74 157.03 500.74"/>
  <ellipse class="st3" cx="163.53" cy="503.57" rx="2.27" ry="2.83"/>
  <polyline class="st3" points="158.89 634.38 158.89 628.14 157.32 628.14"/>
  <ellipse class="st3" cx="163.81" cy="630.98" rx="2.27" ry="2.83"/>
  <circle class="st3" cx="161.41" cy="631.42" r="14.17"/>
  <circle class="st3" cx="161.41" cy="671.1" r="11.34"/>
  <circle class="st3" cx="161.41" cy="703.7" r="7.09"/>
  <circle class="st3" cx="161.41" cy="727.8" r="2.83"/>
  <line class="st3" x1="403.26" y1="468.43" x2="403.26" y2="751.89"/>
  <line class="st3" x1="417.44" y1="482.6" x2="417.44" y2="737.72"/>
  <line class="st3" x1="431.61" y1="496.77" x2="431.61" y2="723.54"/>
  <line class="st3" x1="445.78" y1="510.94" x2="445.78" y2="709.37"/>
  <line class="st3" x1="459.96" y1="525.12" x2="459.96" y2="695.2"/>
  <line class="st3" x1="474.13" y1="539.29" x2="474.13" y2="681.02"/>
  <path class="st3" d="M181.47,152.21h2.72v3.06h-2.72v-3.06ZM181.47,152.21l2.72,3.06"/>
  <path class="st3" d="M185.22,155.27h.34"/>
  <path class="st3" d="M186.58,152.21h2.72v1.36h-2.72v1.7h2.72"/>
  <path class="st3" d="M192.7,153.57h-2.72v-1.36h2.72v3.06"/>
  <line class="st3" x1="172.91" y1="158.1" x2="201.26" y2="158.1"/>
  <line class="st3" x1="172.91" y1="158.94" x2="201.26" y2="158.94"/>
  <line class="st3" x1="172.91" y1="159.77" x2="201.26" y2="159.77"/>
  <line class="st3" x1="172.91" y1="160.6" x2="201.26" y2="160.6"/>
  <line class="st3" x1="172.91" y1="161.43" x2="201.26" y2="161.43"/>
  <line class="st3" x1="172.91" y1="162.26" x2="201.26" y2="162.26"/>
  <line class="st3" x1="172.91" y1="163.09" x2="201.26" y2="163.09"/>
  <line class="st3" x1="172.91" y1="163.92" x2="201.26" y2="163.92"/>
  <line class="st3" x1="172.91" y1="164.75" x2="201.26" y2="164.75"/>
  <line class="st3" x1="172.91" y1="165.58" x2="201.26" y2="165.58"/>
  <line class="st3" x1="172.91" y1="166.41" x2="201.26" y2="166.41"/>
  <line class="st3" x1="172.91" y1="167.24" x2="201.26" y2="167.24"/>
  <line class="st3" x1="172.91" y1="168.07" x2="201.26" y2="168.07"/>
  <line class="st3" x1="172.91" y1="168.9" x2="201.26" y2="168.9"/>
  <line class="st3" x1="172.91" y1="169.73" x2="201.26" y2="169.73"/>
  <line class="st3" x1="172.91" y1="170.56" x2="201.26" y2="170.56"/>
  <line class="st3" x1="172.91" y1="171.39" x2="201.26" y2="171.39"/>
  <line class="st3" x1="172.91" y1="172.22" x2="201.26" y2="172.22"/>
  <line class="st3" x1="172.91" y1="172.28" x2="172.91" y2="186.45"/>
  <line class="st3" x1="173.74" y1="172.28" x2="173.74" y2="186.45"/>
  <line class="st3" x1="174.57" y1="172.28" x2="174.57" y2="186.45"/>
  <line class="st3" x1="175.41" y1="172.28" x2="175.41" y2="186.45"/>
  <line class="st3" x1="176.24" y1="172.28" x2="176.24" y2="186.45"/>
  <line class="st3" x1="177.07" y1="172.28" x2="177.07" y2="186.45"/>
  <line class="st3" x1="177.9" y1="172.28" x2="177.9" y2="186.45"/>
  <line class="st3" x1="178.73" y1="172.28" x2="178.73" y2="186.45"/>
  <line class="st3" x1="179.56" y1="172.28" x2="179.56" y2="186.45"/>
  <line class="st3" x1="180.39" y1="172.28" x2="180.39" y2="186.45"/>
  <line class="st3" x1="181.22" y1="172.28" x2="181.22" y2="186.45"/>
  <line class="st3" x1="182.05" y1="172.28" x2="182.05" y2="186.45"/>
  <line class="st3" x1="182.88" y1="172.28" x2="182.88" y2="186.45"/>
  <line class="st3" x1="183.71" y1="172.28" x2="183.71" y2="186.45"/>
  <line class="st3" x1="184.54" y1="172.28" x2="184.54" y2="186.45"/>
  <line class="st3" x1="185.37" y1="172.28" x2="185.37" y2="186.45"/>
  <line class="st3" x1="186.2" y1="172.28" x2="186.2" y2="186.45"/>
  <line class="st3" x1="187.03" y1="172.28" x2="187.03" y2="186.45"/>
  <line class="st3" x1="187.86" y1="172.28" x2="187.86" y2="186.45"/>
  <line class="st3" x1="188.69" y1="172.28" x2="188.69" y2="186.45"/>
  <line class="st3" x1="189.52" y1="172.28" x2="189.52" y2="186.45"/>
  <line class="st3" x1="190.35" y1="172.28" x2="190.35" y2="186.45"/>
  <line class="st3" x1="191.19" y1="172.28" x2="191.19" y2="186.45"/>
  <line class="st3" x1="192.02" y1="172.28" x2="192.02" y2="186.45"/>
  <line class="st3" x1="192.85" y1="172.28" x2="192.85" y2="186.45"/>
  <line class="st3" x1="193.68" y1="172.28" x2="193.68" y2="186.45"/>
  <line class="st3" x1="194.51" y1="172.28" x2="194.51" y2="186.45"/>
  <line class="st3" x1="195.34" y1="172.28" x2="195.34" y2="186.45"/>
  <line class="st3" x1="196.17" y1="172.28" x2="196.17" y2="186.45"/>
  <line class="st3" x1="197" y1="172.28" x2="197" y2="186.45"/>
  <line class="st3" x1="197.83" y1="172.28" x2="197.83" y2="186.45"/>
  <line class="st3" x1="198.66" y1="172.28" x2="198.66" y2="186.45"/>
  <line class="st3" x1="199.49" y1="172.28" x2="199.49" y2="186.45"/>
  <line class="st3" x1="200.32" y1="172.28" x2="200.32" y2="186.45"/>
  <line class="st3" x1="201.15" y1="172.28" x2="201.15" y2="186.45"/>
  <line class="st0" x1="172.91" y1="172.28" x2="201.26" y2="172.28"/>
  <path class="st3" d="M218.32,152.21h2.72v3.06h-2.72v-3.06ZM218.32,152.21l2.72,3.06"/>
  <path class="st3" d="M222.07,155.27h.34"/>
  <path class="st3" d="M223.43,152.21h2.72v3.06h-2.72M223.43,153.57h2.72"/>
  <path class="st3" d="M229.55,153.57h-2.72v-1.36h2.72v3.06"/>
  <line class="st3" x1="209.76" y1="158.1" x2="238.11" y2="158.1"/>
  <line class="st3" x1="209.76" y1="159.2" x2="238.11" y2="159.2"/>
  <line class="st3" x1="209.76" y1="160.29" x2="238.11" y2="160.29"/>
  <line class="st3" x1="209.76" y1="161.39" x2="238.11" y2="161.39"/>
  <line class="st3" x1="209.76" y1="162.48" x2="238.11" y2="162.48"/>
  <line class="st3" x1="209.76" y1="163.58" x2="238.11" y2="163.58"/>
  <line class="st3" x1="209.76" y1="164.67" x2="238.11" y2="164.67"/>
  <line class="st3" x1="209.76" y1="165.76" x2="238.11" y2="165.76"/>
  <line class="st3" x1="209.76" y1="166.86" x2="238.11" y2="166.86"/>
  <line class="st3" x1="209.76" y1="167.95" x2="238.11" y2="167.95"/>
  <line class="st3" x1="209.76" y1="169.05" x2="238.11" y2="169.05"/>
  <line class="st3" x1="209.76" y1="170.14" x2="238.11" y2="170.14"/>
  <line class="st3" x1="209.76" y1="171.23" x2="238.11" y2="171.23"/>
  <line class="st3" x1="209.76" y1="172.28" x2="209.76" y2="186.45"/>
  <line class="st3" x1="210.86" y1="172.28" x2="210.86" y2="186.45"/>
  <line class="st3" x1="211.95" y1="172.28" x2="211.95" y2="186.45"/>
  <line class="st3" x1="213.05" y1="172.28" x2="213.05" y2="186.45"/>
  <line class="st3" x1="214.14" y1="172.28" x2="214.14" y2="186.45"/>
  <line class="st3" x1="215.23" y1="172.28" x2="215.23" y2="186.45"/>
  <line class="st3" x1="216.33" y1="172.28" x2="216.33" y2="186.45"/>
  <line class="st3" x1="217.42" y1="172.28" x2="217.42" y2="186.45"/>
  <line class="st3" x1="218.52" y1="172.28" x2="218.52" y2="186.45"/>
  <line class="st3" x1="219.61" y1="172.28" x2="219.61" y2="186.45"/>
  <line class="st3" x1="220.71" y1="172.28" x2="220.71" y2="186.45"/>
  <line class="st3" x1="221.8" y1="172.28" x2="221.8" y2="186.45"/>
  <line class="st3" x1="222.89" y1="172.28" x2="222.89" y2="186.45"/>
  <line class="st3" x1="223.99" y1="172.28" x2="223.99" y2="186.45"/>
  <line class="st3" x1="225.08" y1="172.28" x2="225.08" y2="186.45"/>
  <line class="st3" x1="226.18" y1="172.28" x2="226.18" y2="186.45"/>
  <line class="st3" x1="227.27" y1="172.28" x2="227.27" y2="186.45"/>
  <line class="st3" x1="228.36" y1="172.28" x2="228.36" y2="186.45"/>
  <line class="st3" x1="229.46" y1="172.28" x2="229.46" y2="186.45"/>
  <line class="st3" x1="230.55" y1="172.28" x2="230.55" y2="186.45"/>
  <line class="st3" x1="231.65" y1="172.28" x2="231.65" y2="186.45"/>
  <line class="st3" x1="232.74" y1="172.28" x2="232.74" y2="186.45"/>
  <line class="st3" x1="233.84" y1="172.28" x2="233.84" y2="186.45"/>
  <line class="st3" x1="234.93" y1="172.28" x2="234.93" y2="186.45"/>
  <line class="st3" x1="236.02" y1="172.28" x2="236.02" y2="186.45"/>
  <line class="st3" x1="237.12" y1="172.28" x2="237.12" y2="186.45"/>
  <line class="st0" x1="209.76" y1="172.28" x2="238.11" y2="172.28"/>
  <path class="st3" d="M255.17,152.21h2.72v3.06h-2.72v-3.06h0ZM255.17,152.21l2.72,3.06"/>
  <path class="st3" d="M258.92,155.27h.34"/>
  <path class="st3" d="M260.28,152.21v1.36h2.72M263,152.21v3.06"/>
  <path class="st3" d="M263.68,152.21h2.72v3.06h-2.72v-3.06ZM263.68,153.57h2.72"/>
  <line class="st3" x1="246.61" y1="158.1" x2="274.96" y2="158.1"/>
  <line class="st3" x1="246.61" y1="159.46" x2="274.96" y2="159.46"/>
  <line class="st3" x1="246.61" y1="160.82" x2="274.96" y2="160.82"/>
  <line class="st3" x1="246.61" y1="162.18" x2="274.96" y2="162.18"/>
  <line class="st3" x1="246.61" y1="163.54" x2="274.96" y2="163.54"/>
  <line class="st3" x1="246.61" y1="164.89" x2="274.96" y2="164.89"/>
  <line class="st3" x1="246.61" y1="166.25" x2="274.96" y2="166.25"/>
  <line class="st3" x1="246.61" y1="167.61" x2="274.96" y2="167.61"/>
  <line class="st3" x1="246.61" y1="168.97" x2="274.96" y2="168.97"/>
  <line class="st3" x1="246.61" y1="170.32" x2="274.96" y2="170.32"/>
  <line class="st3" x1="246.61" y1="171.68" x2="274.96" y2="171.68"/>
  <line class="st3" x1="246.61" y1="172.28" x2="246.61" y2="186.45"/>
  <line class="st3" x1="247.97" y1="172.28" x2="247.97" y2="186.45"/>
  <line class="st3" x1="249.33" y1="172.28" x2="249.33" y2="186.45"/>
  <line class="st3" x1="250.69" y1="172.28" x2="250.69" y2="186.45"/>
  <line class="st3" x1="252.05" y1="172.28" x2="252.05" y2="186.45"/>
  <line class="st3" x1="253.4" y1="172.28" x2="253.4" y2="186.45"/>
  <line class="st3" x1="254.76" y1="172.28" x2="254.76" y2="186.45"/>
  <line class="st3" x1="256.12" y1="172.28" x2="256.12" y2="186.45"/>
  <line class="st3" x1="257.48" y1="172.28" x2="257.48" y2="186.45"/>
  <line class="st3" x1="258.83" y1="172.28" x2="258.83" y2="186.45"/>
  <line class="st3" x1="260.19" y1="172.28" x2="260.19" y2="186.45"/>
  <line class="st3" x1="261.55" y1="172.28" x2="261.55" y2="186.45"/>
  <line class="st3" x1="262.91" y1="172.28" x2="262.91" y2="186.45"/>
  <line class="st3" x1="264.27" y1="172.28" x2="264.27" y2="186.45"/>
  <line class="st3" x1="265.62" y1="172.28" x2="265.62" y2="186.45"/>
  <line class="st3" x1="266.98" y1="172.28" x2="266.98" y2="186.45"/>
  <line class="st3" x1="268.34" y1="172.28" x2="268.34" y2="186.45"/>
  <line class="st3" x1="269.7" y1="172.28" x2="269.7" y2="186.45"/>
  <line class="st3" x1="271.05" y1="172.28" x2="271.05" y2="186.45"/>
  <line class="st3" x1="272.41" y1="172.28" x2="272.41" y2="186.45"/>
  <line class="st3" x1="273.77" y1="172.28" x2="273.77" y2="186.45"/>
  <line class="st0" x1="246.61" y1="172.28" x2="274.96" y2="172.28"/>
  <path class="st3" d="M292.03,152.21h2.72v3.06h-2.72v-3.06ZM292.03,152.21l2.72,3.06"/>
  <path class="st3" d="M295.77,155.27h.34"/>
  <path class="st3" d="M299.85,152.21h-2.72v1.36h2.72v1.7h-2.72"/>
  <path class="st3" d="M300.53,152.21h2.72v3.06"/>
  <line class="st3" x1="283.46" y1="158.1" x2="311.81" y2="158.1"/>
  <line class="st3" x1="283.46" y1="159.72" x2="311.81" y2="159.72"/>
  <line class="st3" x1="283.46" y1="161.34" x2="311.81" y2="161.34"/>
  <line class="st3" x1="283.46" y1="162.96" x2="311.81" y2="162.96"/>
  <line class="st3" x1="283.46" y1="164.58" x2="311.81" y2="164.58"/>
  <line class="st3" x1="283.46" y1="166.2" x2="311.81" y2="166.2"/>
  <line class="st3" x1="283.46" y1="167.82" x2="311.81" y2="167.82"/>
  <line class="st3" x1="283.46" y1="169.43" x2="311.81" y2="169.43"/>
  <line class="st3" x1="283.46" y1="171.05" x2="311.81" y2="171.05"/>
  <line class="st3" x1="283.46" y1="172.28" x2="283.46" y2="186.45"/>
  <line class="st3" x1="285.08" y1="172.28" x2="285.08" y2="186.45"/>
  <line class="st3" x1="286.7" y1="172.28" x2="286.7" y2="186.45"/>
  <line class="st3" x1="288.32" y1="172.28" x2="288.32" y2="186.45"/>
  <line class="st3" x1="289.94" y1="172.28" x2="289.94" y2="186.45"/>
  <line class="st3" x1="291.56" y1="172.28" x2="291.56" y2="186.45"/>
  <line class="st3" x1="293.18" y1="172.28" x2="293.18" y2="186.45"/>
  <line class="st3" x1="294.79" y1="172.28" x2="294.79" y2="186.45"/>
  <line class="st3" x1="296.41" y1="172.28" x2="296.41" y2="186.45"/>
  <line class="st3" x1="298.03" y1="172.28" x2="298.03" y2="186.45"/>
  <line class="st3" x1="299.65" y1="172.28" x2="299.65" y2="186.45"/>
  <line class="st3" x1="301.27" y1="172.28" x2="301.27" y2="186.45"/>
  <line class="st3" x1="302.89" y1="172.28" x2="302.89" y2="186.45"/>
  <line class="st3" x1="304.51" y1="172.28" x2="304.51" y2="186.45"/>
  <line class="st3" x1="306.12" y1="172.28" x2="306.12" y2="186.45"/>
  <line class="st3" x1="307.74" y1="172.28" x2="307.74" y2="186.45"/>
  <line class="st3" x1="309.36" y1="172.28" x2="309.36" y2="186.45"/>
  <line class="st3" x1="310.98" y1="172.28" x2="310.98" y2="186.45"/>
  <line class="st0" x1="283.46" y1="172.28" x2="311.81" y2="172.28"/>
  <path class="st3" d="M328.88,152.21h2.72v3.06h-2.72v-3.06ZM328.88,152.21l2.72,3.06"/>
  <path class="st3" d="M332.62,155.27h.34"/>
  <path class="st3" d="M336.7,152.21h-2.72v3.06h2.72v-1.7h-2.72"/>
  <path class="st3" d="M340.1,152.21h-2.72v3.06h2.72v-1.7h-2.72"/>
  <line class="st3" x1="320.31" y1="158.1" x2="348.66" y2="158.1"/>
  <line class="st3" x1="320.31" y1="159.99" x2="348.66" y2="159.99"/>
  <line class="st3" x1="320.31" y1="161.87" x2="348.66" y2="161.87"/>
  <line class="st3" x1="320.31" y1="163.75" x2="348.66" y2="163.75"/>
  <line class="st3" x1="320.31" y1="165.63" x2="348.66" y2="165.63"/>
  <line class="st3" x1="320.31" y1="167.52" x2="348.66" y2="167.52"/>
  <line class="st3" x1="320.31" y1="169.4" x2="348.66" y2="169.4"/>
  <line class="st3" x1="320.31" y1="171.28" x2="348.66" y2="171.28"/>
  <line class="st3" x1="320.31" y1="172.28" x2="320.31" y2="186.45"/>
  <line class="st3" x1="322.2" y1="172.28" x2="322.2" y2="186.45"/>
  <line class="st3" x1="324.08" y1="172.28" x2="324.08" y2="186.45"/>
  <line class="st3" x1="325.96" y1="172.28" x2="325.96" y2="186.45"/>
  <line class="st3" x1="327.84" y1="172.28" x2="327.84" y2="186.45"/>
  <line class="st3" x1="329.73" y1="172.28" x2="329.73" y2="186.45"/>
  <line class="st3" x1="331.61" y1="172.28" x2="331.61" y2="186.45"/>
  <line class="st3" x1="333.49" y1="172.28" x2="333.49" y2="186.45"/>
  <line class="st3" x1="335.37" y1="172.28" x2="335.37" y2="186.45"/>
  <line class="st3" x1="337.25" y1="172.28" x2="337.25" y2="186.45"/>
  <line class="st3" x1="339.14" y1="172.28" x2="339.14" y2="186.45"/>
  <line class="st3" x1="341.02" y1="172.28" x2="341.02" y2="186.45"/>
  <line class="st3" x1="342.9" y1="172.28" x2="342.9" y2="186.45"/>
  <line class="st3" x1="344.78" y1="172.28" x2="344.78" y2="186.45"/>
  <line class="st3" x1="346.67" y1="172.28" x2="346.67" y2="186.45"/>
  <line class="st3" x1="348.55" y1="172.28" x2="348.55" y2="186.45"/>
  <line class="st0" x1="320.31" y1="172.28" x2="348.66" y2="172.28"/>
  <path class="st3" d="M365.73,152.21h2.72v3.06h-2.72v-3.06ZM365.73,152.21l2.72,3.06"/>
  <path class="st3" d="M369.47,155.27h.34"/>
  <path class="st3" d="M370.83,152.21h2.72v3.06"/>
  <path class="st3" d="M376.95,152.21h-2.72v3.06h2.72v-1.7h-2.72"/>
  <line class="st3" x1="357.17" y1="158.1" x2="385.51" y2="158.1"/>
  <line class="st3" x1="357.17" y1="160.25" x2="385.51" y2="160.25"/>
  <line class="st3" x1="357.17" y1="162.4" x2="385.51" y2="162.4"/>
  <line class="st3" x1="357.17" y1="164.54" x2="385.51" y2="164.54"/>
  <line class="st3" x1="357.17" y1="166.69" x2="385.51" y2="166.69"/>
  <line class="st3" x1="357.17" y1="168.83" x2="385.51" y2="168.83"/>
  <line class="st3" x1="357.17" y1="170.98" x2="385.51" y2="170.98"/>
  <line class="st3" x1="357.17" y1="172.28" x2="357.17" y2="186.45"/>
  <line class="st3" x1="359.31" y1="172.28" x2="359.31" y2="186.45"/>
  <line class="st3" x1="361.46" y1="172.28" x2="361.46" y2="186.45"/>
  <line class="st3" x1="363.6" y1="172.28" x2="363.6" y2="186.45"/>
  <line class="st3" x1="365.75" y1="172.28" x2="365.75" y2="186.45"/>
  <line class="st3" x1="367.89" y1="172.28" x2="367.89" y2="186.45"/>
  <line class="st3" x1="370.04" y1="172.28" x2="370.04" y2="186.45"/>
  <line class="st3" x1="372.19" y1="172.28" x2="372.19" y2="186.45"/>
  <line class="st3" x1="374.33" y1="172.28" x2="374.33" y2="186.45"/>
  <line class="st3" x1="376.48" y1="172.28" x2="376.48" y2="186.45"/>
  <line class="st3" x1="378.62" y1="172.28" x2="378.62" y2="186.45"/>
  <line class="st3" x1="380.77" y1="172.28" x2="380.77" y2="186.45"/>
  <line class="st3" x1="382.92" y1="172.28" x2="382.92" y2="186.45"/>
  <line class="st3" x1="385.06" y1="172.28" x2="385.06" y2="186.45"/>
  <line class="st0" x1="357.17" y1="172.28" x2="385.51" y2="172.28"/>
  <path class="st3" d="M402.58,152.21h2.72v3.06h-2.72v-3.06ZM402.58,152.21l2.72,3.06"/>
  <path class="st3" d="M406.32,155.27h.34"/>
  <path class="st3" d="M407.68,152.21h2.72v3.06h-2.72v-3.06ZM407.68,153.57h2.72"/>
  <path class="st3" d="M413.8,152.21h-2.72v1.36h2.72v1.7h-2.72"/>
  <line class="st3" x1="394.02" y1="158.1" x2="422.36" y2="158.1"/>
  <line class="st3" x1="394.02" y1="160.51" x2="422.36" y2="160.51"/>
  <line class="st3" x1="394.02" y1="162.92" x2="422.36" y2="162.92"/>
  <line class="st3" x1="394.02" y1="165.33" x2="422.36" y2="165.33"/>
  <line class="st3" x1="394.02" y1="167.74" x2="422.36" y2="167.74"/>
  <line class="st3" x1="394.02" y1="170.15" x2="422.36" y2="170.15"/>
  <line class="st3" x1="394.02" y1="172.28" x2="394.02" y2="186.45"/>
  <line class="st3" x1="396.43" y1="172.28" x2="396.43" y2="186.45"/>
  <line class="st3" x1="398.83" y1="172.28" x2="398.83" y2="186.45"/>
  <line class="st3" x1="401.24" y1="172.28" x2="401.24" y2="186.45"/>
  <line class="st3" x1="403.65" y1="172.28" x2="403.65" y2="186.45"/>
  <line class="st3" x1="406.06" y1="172.28" x2="406.06" y2="186.45"/>
  <line class="st3" x1="408.47" y1="172.28" x2="408.47" y2="186.45"/>
  <line class="st3" x1="410.88" y1="172.28" x2="410.88" y2="186.45"/>
  <line class="st3" x1="413.29" y1="172.28" x2="413.29" y2="186.45"/>
  <line class="st3" x1="415.7" y1="172.28" x2="415.7" y2="186.45"/>
  <line class="st3" x1="418.11" y1="172.28" x2="418.11" y2="186.45"/>
  <line class="st3" x1="420.52" y1="172.28" x2="420.52" y2="186.45"/>
  <line class="st0" x1="394.02" y1="172.28" x2="422.36" y2="172.28"/>
  <circle class="st3" cx="187.09" cy="206.29" r=".83"/>
  <circle class="st3" cx="187.09" cy="206.29" r="1.66"/>
  <circle class="st3" cx="187.09" cy="206.29" r="2.49"/>
  <circle class="st3" cx="187.09" cy="206.29" r="3.32"/>
  <circle class="st3" cx="187.09" cy="206.29" r="4.15"/>
  <circle class="st3" cx="187.09" cy="206.29" r="4.98"/>
  <circle class="st3" cx="187.09" cy="206.29" r="5.81"/>
  <circle class="st3" cx="187.09" cy="206.29" r="6.64"/>
  <circle class="st3" cx="187.09" cy="206.29" r="7.47"/>
  <circle class="st3" cx="187.09" cy="206.29" r="8.31"/>
  <circle class="st3" cx="187.09" cy="206.29" r="9.14"/>
  <circle class="st3" cx="187.09" cy="206.29" r="9.97"/>
  <circle class="st3" cx="187.09" cy="206.29" r="10.8"/>
  <circle class="st3" cx="187.09" cy="206.29" r="11.63"/>
  <circle class="st3" cx="187.09" cy="206.29" r="12.46"/>
  <circle class="st3" cx="187.09" cy="206.29" r="13.29"/>
  <circle class="st3" cx="187.09" cy="206.29" r="14.12"/>
  <circle class="st3" cx="223.94" cy="206.29" r="1.09"/>
  <circle class="st3" cx="223.94" cy="206.29" r="2.19"/>
  <circle class="st3" cx="223.94" cy="206.29" r="3.28"/>
  <circle class="st3" cx="223.94" cy="206.29" r="4.38"/>
  <circle class="st3" cx="223.94" cy="206.29" r="5.47"/>
  <circle class="st3" cx="223.94" cy="206.29" r="6.57"/>
  <circle class="st3" cx="223.94" cy="206.29" r="7.66"/>
  <circle class="st3" cx="223.94" cy="206.29" r="8.75"/>
  <circle class="st3" cx="223.94" cy="206.29" r="9.85"/>
  <circle class="st3" cx="223.94" cy="206.29" r="10.94"/>
  <circle class="st3" cx="223.94" cy="206.29" r="12.04"/>
  <circle class="st3" cx="223.94" cy="206.29" r="13.13"/>
  <circle class="st3" cx="260.79" cy="206.29" r="1.36"/>
  <circle class="st3" cx="260.79" cy="206.29" r="2.72"/>
  <circle class="st3" cx="260.79" cy="206.29" r="4.07"/>
  <circle class="st3" cx="260.79" cy="206.29" r="5.43"/>
  <circle class="st3" cx="260.79" cy="206.29" r="6.79" transform="translate(15.39 430.67) rotate(-80.78)"/>
  <circle class="st3" cx="260.79" cy="206.29" r="8.15"/>
  <circle class="st3" cx="260.79" cy="206.29" r="9.5"/>
  <circle class="st3" cx="260.79" cy="206.29" r="10.86" transform="translate(15.39 430.67) rotate(-80.78)"/>
  <circle class="st3" cx="260.79" cy="206.29" r="12.22"/>
  <circle class="st3" cx="260.79" cy="206.29" r="13.58" transform="translate(15.39 430.67) rotate(-80.78)"/>
  <circle class="st3" cx="297.64" cy="206.29" r="1.62"/>
  <circle class="st3" cx="297.64" cy="206.29" r="3.24"/>
  <circle class="st3" cx="297.64" cy="206.29" r="4.86"/>
  <circle class="st3" cx="297.64" cy="206.29" r="6.47"/>
  <circle class="st3" cx="297.64" cy="206.29" r="8.09"/>
  <circle class="st3" cx="297.64" cy="206.29" r="9.71"/>
  <circle class="st3" cx="297.64" cy="206.29" r="11.33"/>
  <circle class="st3" cx="297.64" cy="206.29" r="12.95"/>
  <circle class="st3" cx="334.49" cy="206.29" r="1.88"/>
  <circle class="st3" cx="334.49" cy="206.29" r="3.76"/>
  <circle class="st3" cx="334.49" cy="206.29" r="5.65"/>
  <circle class="st2" cx="334.5" cy="206.3" r="7.53"/>
  <circle class="st2" cx="334.5" cy="206.3" r="9.41"/>
  <circle class="st2" cx="334.5" cy="206.3" r="11.29" transform="translate(77.26 503.43) rotate(-80.78)"/>
  <circle class="st1" cx="334.48" cy="206.3" r="13.18" transform="translate(15.89 436.37) rotate(-67.5)"/>
  <circle class="st3" cx="371.34" cy="206.29" r="2.15"/>
  <circle class="st3" cx="371.34" cy="206.29" r="4.29"/>
  <circle class="st3" cx="371.34" cy="206.29" r="6.44"/>
  <circle class="st3" cx="371.34" cy="206.29" r="8.58"/>
  <circle class="st3" cx="371.34" cy="206.29" r="10.73"/>
  <circle class="st3" cx="371.34" cy="206.29" r="12.87"/>
  <circle class="st3" cx="408.19" cy="206.29" r="2.41"/>
  <circle class="st3" cx="408.19" cy="206.29" r="4.82"/>
  <circle class="st3" cx="408.19" cy="206.29" r="7.23"/>
  <circle class="st3" cx="408.19" cy="206.29" r="9.64"/>
  <circle class="st3" cx="408.19" cy="206.29" r="12.05"/>
  <path class="st3" d="M181.47,243.33h2.72v3.06h-2.72v-3.06ZM181.47,243.33l2.72,3.06"/>
  <path class="st3" d="M185.22,246.39h.34"/>
  <path class="st3" d="M189.3,244.69h-2.72v-1.36h2.72v3.06"/>
  <path class="st3" d="M189.98,243.33v1.36h2.72M192.7,243.33v3.06"/>
  <line class="st3" x1="172.91" y1="249.22" x2="201.26" y2="249.22"/>
  <line class="st3" x1="172.91" y1="251.9" x2="201.26" y2="251.9"/>
  <line class="st3" x1="172.91" y1="254.57" x2="201.26" y2="254.57"/>
  <line class="st3" x1="172.91" y1="257.24" x2="201.26" y2="257.24"/>
  <line class="st3" x1="172.91" y1="259.91" x2="201.26" y2="259.91"/>
  <line class="st3" x1="172.91" y1="262.59" x2="201.26" y2="262.59"/>
  <line class="st3" x1="172.91" y1="263.4" x2="172.91" y2="277.57"/>
  <line class="st3" x1="175.59" y1="263.4" x2="175.59" y2="277.57"/>
  <line class="st3" x1="178.26" y1="263.4" x2="178.26" y2="277.57"/>
  <line class="st3" x1="180.93" y1="263.4" x2="180.93" y2="277.57"/>
  <line class="st3" x1="183.61" y1="263.4" x2="183.61" y2="277.57"/>
  <line class="st3" x1="186.28" y1="263.4" x2="186.28" y2="277.57"/>
  <line class="st3" x1="188.95" y1="263.4" x2="188.95" y2="277.57"/>
  <line class="st3" x1="191.62" y1="263.4" x2="191.62" y2="277.57"/>
  <line class="st3" x1="194.3" y1="263.4" x2="194.3" y2="277.57"/>
  <line class="st3" x1="196.97" y1="263.4" x2="196.97" y2="277.57"/>
  <line class="st3" x1="199.64" y1="263.4" x2="199.64" y2="277.57"/>
  <line class="st0" x1="172.91" y1="263.4" x2="201.26" y2="263.4"/>
  <path class="st3" d="M219,243.33h.68v3.06"/>
  <path class="st3" d="M222.07,246.39h.34"/>
  <path class="st3" d="M223.43,243.33h2.72v3.06h-2.72v-3.06ZM223.43,243.33l2.72,3.06"/>
  <path class="st3" d="M226.83,243.33v1.36h2.72M229.55,243.33v3.06"/>
  <line class="st3" x1="209.76" y1="249.22" x2="238.11" y2="249.22"/>
  <line class="st3" x1="209.76" y1="252.16" x2="238.11" y2="252.16"/>
  <line class="st3" x1="209.76" y1="255.1" x2="238.11" y2="255.1"/>
  <line class="st3" x1="209.76" y1="258.03" x2="238.11" y2="258.03"/>
  <line class="st3" x1="209.76" y1="260.97" x2="238.11" y2="260.97"/>
  <line class="st3" x1="209.76" y1="263.4" x2="209.76" y2="277.57"/>
  <line class="st3" x1="212.7" y1="263.4" x2="212.7" y2="277.57"/>
  <line class="st3" x1="215.64" y1="263.4" x2="215.64" y2="277.57"/>
  <line class="st3" x1="218.57" y1="263.4" x2="218.57" y2="277.57"/>
  <line class="st3" x1="221.51" y1="263.4" x2="221.51" y2="277.57"/>
  <line class="st3" x1="224.45" y1="263.4" x2="224.45" y2="277.57"/>
  <line class="st3" x1="227.38" y1="263.4" x2="227.38" y2="277.57"/>
  <line class="st3" x1="230.32" y1="263.4" x2="230.32" y2="277.57"/>
  <line class="st3" x1="233.26" y1="263.4" x2="233.26" y2="277.57"/>
  <line class="st3" x1="236.19" y1="263.4" x2="236.19" y2="277.57"/>
  <line class="st0" x1="209.76" y1="263.4" x2="238.11" y2="263.4"/>
  <path class="st3" d="M255.86,243.33h.68v3.06"/>
  <path class="st3" d="M258.92,246.39h.34"/>
  <path class="st3" d="M260.96,243.33h.68v3.06"/>
  <path class="st3" d="M263.68,243.33h2.72v3.06h-2.72M263.68,244.69h2.72"/>
  <line class="st3" x1="246.61" y1="249.22" x2="274.96" y2="249.22"/>
  <line class="st3" x1="246.61" y1="252.42" x2="274.96" y2="252.42"/>
  <line class="st3" x1="246.61" y1="255.62" x2="274.96" y2="255.62"/>
  <line class="st3" x1="246.61" y1="258.82" x2="274.96" y2="258.82"/>
  <line class="st3" x1="246.61" y1="262.02" x2="274.96" y2="262.02"/>
  <line class="st3" x1="246.61" y1="263.4" x2="246.61" y2="277.57"/>
  <line class="st3" x1="249.81" y1="263.4" x2="249.81" y2="277.57"/>
  <line class="st3" x1="253.01" y1="263.4" x2="253.01" y2="277.57"/>
  <line class="st3" x1="256.22" y1="263.4" x2="256.22" y2="277.57"/>
  <line class="st3" x1="259.42" y1="263.4" x2="259.42" y2="277.57"/>
  <line class="st3" x1="262.62" y1="263.4" x2="262.62" y2="277.57"/>
  <line class="st3" x1="265.82" y1="263.4" x2="265.82" y2="277.57"/>
  <line class="st3" x1="269.02" y1="263.4" x2="269.02" y2="277.57"/>
  <line class="st3" x1="272.22" y1="263.4" x2="272.22" y2="277.57"/>
  <line class="st0" x1="246.61" y1="263.4" x2="274.96" y2="263.4"/>
  <path class="st3" d="M292.71,243.33h.68v3.06"/>
  <path class="st3" d="M295.77,246.39h.34"/>
  <path class="st3" d="M297.13,243.33h2.72v1.36h-2.72v1.7h2.72"/>
  <path class="st3" d="M300.53,243.33h2.72v1.36h-2.72v1.7h2.72"/>
  <line class="st3" x1="283.46" y1="249.22" x2="311.81" y2="249.22"/>
  <line class="st3" x1="283.46" y1="252.68" x2="311.81" y2="252.68"/>
  <line class="st3" x1="283.46" y1="256.14" x2="311.81" y2="256.14"/>
  <line class="st3" x1="283.46" y1="259.61" x2="311.81" y2="259.61"/>
  <line class="st3" x1="283.46" y1="263.07" x2="311.81" y2="263.07"/>
  <line class="st3" x1="283.46" y1="263.4" x2="283.46" y2="277.57"/>
  <line class="st3" x1="286.93" y1="263.4" x2="286.93" y2="277.57"/>
  <line class="st3" x1="290.39" y1="263.4" x2="290.39" y2="277.57"/>
  <line class="st3" x1="293.85" y1="263.4" x2="293.85" y2="277.57"/>
  <line class="st3" x1="297.31" y1="263.4" x2="297.31" y2="277.57"/>
  <line class="st3" x1="300.77" y1="263.4" x2="300.77" y2="277.57"/>
  <line class="st3" x1="304.23" y1="263.4" x2="304.23" y2="277.57"/>
  <line class="st3" x1="307.69" y1="263.4" x2="307.69" y2="277.57"/>
  <line class="st3" x1="311.15" y1="263.4" x2="311.15" y2="277.57"/>
  <line class="st0" x1="283.46" y1="263.4" x2="311.81" y2="263.4"/>
  <path class="st3" d="M329.56,243.33h.68v3.06"/>
  <path class="st3" d="M332.62,246.39h.34"/>
  <path class="st3" d="M333.98,243.33h2.72v3.06h-2.72M333.98,244.69h2.72"/>
  <path class="st3" d="M338.06,243.33h.68v3.06"/>
  <line class="st3" x1="320.31" y1="249.22" x2="348.66" y2="249.22"/>
  <line class="st3" x1="320.31" y1="252.95" x2="348.66" y2="252.95"/>
  <line class="st3" x1="320.31" y1="256.67" x2="348.66" y2="256.67"/>
  <line class="st3" x1="320.31" y1="260.4" x2="348.66" y2="260.4"/>
  <line class="st3" x1="320.31" y1="263.4" x2="320.31" y2="277.57"/>
  <line class="st3" x1="324.04" y1="263.4" x2="324.04" y2="277.57"/>
  <line class="st3" x1="327.76" y1="263.4" x2="327.76" y2="277.57"/>
  <line class="st3" x1="331.49" y1="263.4" x2="331.49" y2="277.57"/>
  <line class="st3" x1="335.21" y1="263.4" x2="335.21" y2="277.57"/>
  <line class="st3" x1="338.94" y1="263.4" x2="338.94" y2="277.57"/>
  <line class="st3" x1="342.66" y1="263.4" x2="342.66" y2="277.57"/>
  <line class="st3" x1="346.39" y1="263.4" x2="346.39" y2="277.57"/>
  <line class="st0" x1="320.31" y1="263.4" x2="348.66" y2="263.4"/>
  <path class="st3" d="M366.41,243.33h.68v3.06"/>
  <path class="st3" d="M369.47,246.39h.34"/>
  <path class="st3" d="M370.83,243.33v1.36h2.72M373.55,243.33v3.06"/>
  <path class="st3" d="M374.91,243.33h.68v3.06"/>
  <line class="st3" x1="357.17" y1="249.22" x2="385.51" y2="249.22"/>
  <line class="st3" x1="357.17" y1="253.21" x2="385.51" y2="253.21"/>
  <line class="st3" x1="357.17" y1="257.2" x2="385.51" y2="257.2"/>
  <line class="st3" x1="357.17" y1="261.19" x2="385.51" y2="261.19"/>
  <line class="st3" x1="357.17" y1="263.4" x2="357.17" y2="277.57"/>
  <line class="st3" x1="361.15" y1="263.4" x2="361.15" y2="277.57"/>
  <line class="st3" x1="365.14" y1="263.4" x2="365.14" y2="277.57"/>
  <line class="st3" x1="369.13" y1="263.4" x2="369.13" y2="277.57"/>
  <line class="st3" x1="373.12" y1="263.4" x2="373.12" y2="277.57"/>
  <line class="st3" x1="377.11" y1="263.4" x2="377.11" y2="277.57"/>
  <line class="st3" x1="381.1" y1="263.4" x2="381.1" y2="277.57"/>
  <line class="st3" x1="385.08" y1="263.4" x2="385.08" y2="277.57"/>
  <line class="st0" x1="357.17" y1="263.4" x2="385.51" y2="263.4"/>
  <path class="st3" d="M403.26,243.33h.68v3.06"/>
  <path class="st3" d="M406.32,246.39h.34"/>
  <path class="st3" d="M410.4,243.33h-2.72v1.36h2.72v1.7h-2.72"/>
  <path class="st3" d="M411.08,243.33h2.72v3.06h-2.72v-3.06ZM411.08,243.33l2.72,3.06"/>
  <line class="st3" x1="394.02" y1="249.22" x2="422.36" y2="249.22"/>
  <line class="st3" x1="394.02" y1="253.47" x2="422.36" y2="253.47"/>
  <line class="st3" x1="394.02" y1="257.73" x2="422.36" y2="257.73"/>
  <line class="st3" x1="394.02" y1="261.98" x2="422.36" y2="261.98"/>
  <line class="st3" x1="394.02" y1="263.4" x2="394.02" y2="277.57"/>
  <line class="st3" x1="398.27" y1="263.4" x2="398.27" y2="277.57"/>
  <line class="st3" x1="402.52" y1="263.4" x2="402.52" y2="277.57"/>
  <line class="st3" x1="406.77" y1="263.4" x2="406.77" y2="277.57"/>
  <line class="st3" x1="411.02" y1="263.4" x2="411.02" y2="277.57"/>
  <line class="st3" x1="415.28" y1="263.4" x2="415.28" y2="277.57"/>
  <line class="st3" x1="419.53" y1="263.4" x2="419.53" y2="277.57"/>
  <line class="st0" x1="394.02" y1="263.4" x2="422.36" y2="263.4"/>
  <circle class="st3" cx="187.09" cy="297.41" r="2.67"/>
  <circle class="st3" cx="187.09" cy="297.41" r="5.35"/>
  <circle class="st3" cx="187.09" cy="297.41" r="8.02"/>
  <circle class="st3" cx="187.09" cy="297.41" r="10.69"/>
  <circle class="st3" cx="187.09" cy="297.41" r="13.37"/>
  <circle class="st3" cx="223.94" cy="297.41" r="2.94"/>
  <circle class="st3" cx="223.94" cy="297.41" r="5.87"/>
  <circle class="st3" cx="223.94" cy="297.41" r="8.81"/>
  <circle class="st3" cx="223.94" cy="297.41" r="11.75"/>
  <circle class="st3" cx="260.79" cy="297.41" r="3.2"/>
  <circle class="st3" cx="260.79" cy="297.41" r="6.4"/>
  <circle class="st3" cx="260.79" cy="297.41" r="9.6"/>
  <circle class="st3" cx="260.79" cy="297.41" r="12.8"/>
  <circle class="st3" cx="297.64" cy="297.41" r="3.46"/>
  <circle class="st3" cx="297.64" cy="297.41" r="6.92"/>
  <circle class="st3" cx="297.64" cy="297.41" r="10.38"/>
  <circle class="st3" cx="297.64" cy="297.41" r="13.84"/>
  <circle class="st3" cx="334.49" cy="297.41" r="3.72"/>
  <circle class="st3" cx="334.49" cy="297.41" r="7.45"/>
  <circle class="st3" cx="334.49" cy="297.41" r="11.17"/>
  <circle class="st3" cx="371.34" cy="297.41" r="3.99"/>
  <circle class="st3" cx="371.34" cy="297.41" r="7.98"/>
  <circle class="st3" cx="371.34" cy="297.41" r="11.97"/>
  <circle class="st3" cx="408.19" cy="297.41" r="4.25"/>
  <circle class="st3" cx="408.19" cy="297.41" r="8.5"/>
  <circle class="st3" cx="408.19" cy="297.41" r="12.76"/>
  <line class="st4" x1="28.35" y1="28.35" x2="42.52" y2="28.35"/>
  <line class="st4" x1="28.35" y1="28.35" x2="28.35" y2="42.52"/>
  <line class="st4" x1="566.93" y1="28.35" x2="552.76" y2="28.35"/>
  <line class="st4" x1="566.93" y1="28.35" x2="566.93" y2="42.52"/>
  <line class="st4" x1="28.35" y1="813.54" x2="42.52" y2="813.54"/>
  <line class="st4" x1="28.35" y1="813.54" x2="28.35" y2="799.37"/>
  <line class="st4" x1="566.93" y1="813.54" x2="552.76" y2="813.54"/>
  <line class="st4" x1="566.93" y1="813.54" x2="566.93" y2="799.37"/>
</svg>